<svg width="25" height="25" viewBox="0 0 25 25" fill="none" xmlns="http://www.w3.org/2000/svg">
<path d="M12.4348 0.434784C14.0261 0.434784 15.5522 1.06692 16.6775 2.19214C17.8027 3.31736 18.4348 4.84348 18.4348 6.43478C18.4348 8.02608 17.8027 9.55221 16.6775 10.6774C15.5522 11.8026 14.0261 12.4348 12.4348 12.4348C10.8435 12.4348 9.31739 11.8026 8.19217 10.6774C7.06696 9.55221 6.43481 8.02608 6.43481 6.43478C6.43481 4.84348 7.06696 3.31736 8.19217 2.19214C9.31739 1.06692 10.8435 0.434784 12.4348 0.434784ZM12.4348 15.4348C19.0648 15.4348 24.4348 18.1198 24.4348 21.4348V24.4348H0.434814V21.4348C0.434814 18.1198 5.80481 15.4348 12.4348 15.4348Z" fill="#1B1A20"/>
</svg>
