<svg width="56" height="56" viewBox="0 0 56 56" fill="none" xmlns="http://www.w3.org/2000/svg">
<circle cx="28" cy="28" r="25.5" fill="#1B1A20" stroke="#F8F5FF" stroke-width="5"/>
<g clip-path="url(#clip0_886_732)">
<path d="M21 37.5C20.3583 37.5 19.8088 37.2713 19.3515 36.814C18.8941 36.3566 18.6659 35.8075 18.6666 35.1666V24.6666C18.6666 24.2972 18.7495 23.9472 18.9151 23.6166C19.0808 23.2861 19.3091 23.0139 19.6 22.8L26.6 17.55C26.8139 17.3944 27.0375 17.2778 27.2708 17.2C27.5041 17.1222 27.7472 17.0833 28 17.0833C28.2527 17.0833 28.4958 17.1222 28.7291 17.2C28.9625 17.2778 29.1861 17.3944 29.4 17.55L36.4 22.8C36.6916 23.0139 36.9203 23.2861 37.086 23.6166C37.2516 23.9472 37.3341 24.2972 37.3333 24.6666V35.1666C37.3333 35.8083 37.1046 36.3578 36.6473 36.8151C36.19 37.2725 35.6408 37.5008 35 37.5H30.3333V29.3333H25.6666V37.5H21Z" fill="#F8F8F8"/>
</g>
<defs>
<clipPath id="clip0_886_732">
<rect width="28" height="28" fill="white" transform="translate(14 13)"/>
</clipPath>
</defs>
</svg>
