<svg width="28" height="28" viewBox="0 0 28 28" fill="none" xmlns="http://www.w3.org/2000/svg">
<path d="M21 4.66667H19.8333V3.5C19.8333 2.57174 19.4646 1.6815 18.8082 1.02513C18.1518 0.368749 17.2616 0 16.3333 0L11.6667 0C10.7384 0 9.84817 0.368749 9.19179 1.02513C8.53542 1.6815 8.16667 2.57174 8.16667 3.5V4.66667H7C6.07174 4.66667 5.1815 5.03542 4.52513 5.69179C3.86875 6.34817 3.5 7.23841 3.5 8.16667V10.5C3.5 10.8094 3.62292 11.1062 3.84171 11.325C4.0605 11.5437 4.35725 11.6667 4.66667 11.6667H4.74717L5.6805 24.7497C5.74684 25.6314 6.14315 26.4557 6.79036 27.0581C7.43758 27.6606 8.28812 27.9969 9.17233 28H18.8277C19.7117 27.9966 20.5619 27.6602 21.2089 27.0578C21.8559 26.4553 22.252 25.6312 22.3183 24.7497L23.2528 11.6667H23.3333C23.6428 11.6667 23.9395 11.5437 24.1583 11.325C24.3771 11.1062 24.5 10.8094 24.5 10.5V8.16667C24.5 7.23841 24.1313 6.34817 23.4749 5.69179C22.8185 5.03542 21.9283 4.66667 21 4.66667ZM10.5 3.5C10.5 3.19058 10.6229 2.89383 10.8417 2.67504C11.0605 2.45625 11.3572 2.33333 11.6667 2.33333H16.3333C16.6428 2.33333 16.9395 2.45625 17.1583 2.67504C17.3771 2.89383 17.5 3.19058 17.5 3.5V4.66667H10.5V3.5ZM5.83333 8.16667C5.83333 7.85725 5.95625 7.5605 6.17504 7.34171C6.39383 7.12292 6.69058 7 7 7H21C21.3094 7 21.6062 7.12292 21.825 7.34171C22.0438 7.5605 22.1667 7.85725 22.1667 8.16667V9.33333H5.83333V8.16667ZM19.992 24.5828C19.971 24.8777 19.8389 25.1536 19.6223 25.3547C19.4058 25.5559 19.1209 25.6674 18.8253 25.6667H9.17233C8.87674 25.6674 8.59189 25.5559 8.37533 25.3547C8.15877 25.1536 8.02665 24.8777 8.00567 24.5828L7.08633 11.6667H20.9137L19.992 24.5828Z" fill="white"/>
<path d="M11.6667 23.3333C11.9761 23.3333 12.2728 23.2104 12.4916 22.9916C12.7104 22.7728 12.8333 22.4761 12.8333 22.1667V15.1667C12.8333 14.8572 12.7104 14.5605 12.4916 14.3417C12.2728 14.1229 11.9761 14 11.6667 14C11.3572 14 11.0605 14.1229 10.8417 14.3417C10.6229 14.5605 10.5 14.8572 10.5 15.1667V22.1667C10.5 22.4761 10.6229 22.7728 10.8417 22.9916C11.0605 23.2104 11.3572 23.3333 11.6667 23.3333ZM16.3333 23.3333C16.6428 23.3333 16.9395 23.2104 17.1583 22.9916C17.3771 22.7728 17.5 22.4761 17.5 22.1667V15.1667C17.5 14.8572 17.3771 14.5605 17.1583 14.3417C16.9395 14.1229 16.6428 14 16.3333 14C16.0239 14 15.7272 14.1229 15.5084 14.3417C15.2896 14.5605 15.1667 14.8572 15.1667 15.1667V22.1667C15.1667 22.4761 15.2896 22.7728 15.5084 22.9916C15.7272 23.2104 16.0239 23.3333 16.3333 23.3333Z" fill="white"/>
</svg>
