<svg width="20" height="20" viewBox="0 0 20 20" fill="none" xmlns="http://www.w3.org/2000/svg">
<path d="M10 6.89655V2.06896C14.351 2.06896 17.931 5.64896 17.931 10C17.931 14.351 14.351 17.931 10 17.931C5.64896 17.931 2.06896 14.351 2.06896 10C2.06896 7.89724 2.90482 5.87862 4.39172 4.39172" stroke="white" stroke-width="2" stroke-miterlimit="10"/>
<path d="M6.06414 7.03931C5.93482 6.91 5.86217 6.73461 5.86217 6.55173C5.86217 6.36885 5.93482 6.19346 6.06414 6.06414C6.19346 5.93482 6.36885 5.86217 6.55173 5.86217C6.73461 5.86217 6.91 5.93482 7.03931 6.06414L10.9752 9.02483C11.1069 9.15207 11.212 9.30427 11.2843 9.47255C11.3566 9.64083 11.3946 9.82182 11.3962 10.005C11.3978 10.1881 11.3629 10.3697 11.2935 10.5392C11.2242 10.7088 11.1218 10.8628 10.9923 10.9923C10.8628 11.1218 10.7088 11.2242 10.5392 11.2935C10.3697 11.3629 10.1881 11.3978 10.005 11.3962C9.82182 11.3946 9.64083 11.3566 9.47255 11.2843C9.30427 11.212 9.15207 11.1069 9.02483 10.9752L6.06414 7.03931Z" fill="white"/>
</svg>
