<svg width="56" height="56" viewBox="0 0 56 56" fill="none" xmlns="http://www.w3.org/2000/svg">
<circle cx="28" cy="28" r="25.5" fill="#1B1A20" stroke="#F8F5FF" stroke-width="5"/>
<path d="M28 16C29.5913 16 31.1174 16.6321 32.2426 17.7574C33.3679 18.8826 34 20.4087 34 22C34 23.5913 33.3679 25.1174 32.2426 26.2426C31.1174 27.3679 29.5913 28 28 28C26.4087 28 24.8826 27.3679 23.7574 26.2426C22.6321 25.1174 22 23.5913 22 22C22 20.4087 22.6321 18.8826 23.7574 17.7574C24.8826 16.6321 26.4087 16 28 16ZM28 31C34.63 31 40 33.685 40 37V40H16V37C16 33.685 21.37 31 28 31Z" fill="#F8F8F8"/>
</svg>
