<svg width="56" height="56" viewBox="0 0 56 56" fill="none" xmlns="http://www.w3.org/2000/svg">
<circle cx="28" cy="28" r="25.5" fill="#1B1A20" stroke="#F8F5FF" stroke-width="5"/>
<path fill-rule="evenodd" clip-rule="evenodd" d="M23.0527 16.072C24.3327 16.0133 24.7407 16 28 16C31.26 16 31.6673 16.014 32.9466 16.072C34.2246 16.13 35.0973 16.3333 35.8607 16.63C36.6613 16.9314 37.3865 17.4037 37.986 18.014C38.5963 18.6134 39.0687 19.3387 39.37 20.1393C39.6666 20.9027 39.8693 21.7753 39.928 23.0527C39.9867 24.3327 40 24.7407 40 28C40 31.2593 39.986 31.6673 39.928 32.9474C39.87 34.2246 39.6666 35.0973 39.37 35.8607C39.0633 36.6494 38.6526 37.3193 37.986 37.986C37.3866 38.5963 36.6613 39.0687 35.8607 39.37C35.0973 39.6666 34.2246 39.8693 32.9474 39.928C31.6673 39.9867 31.2593 40 28 40C24.7407 40 24.3327 39.986 23.0527 39.928C21.7753 39.87 20.9027 39.6666 20.1393 39.37C19.3507 39.0633 18.6807 38.6526 18.014 37.986C17.4036 37.3866 16.9313 36.6613 16.63 35.8607C16.3333 35.0973 16.1307 34.2246 16.072 32.9474C16.0133 31.6673 16 31.26 16 28C16 24.74 16.014 24.3327 16.072 23.0533C16.13 21.7753 16.3333 20.9027 16.63 20.1393C16.9314 19.3387 17.4037 18.6135 18.014 18.014C18.6134 17.4036 19.3387 16.9313 20.1393 16.63C20.9027 16.3333 21.7753 16.1307 23.0527 16.072ZM32.8493 18.232C31.584 18.1747 31.204 18.162 28 18.162C24.796 18.162 24.416 18.1747 23.1507 18.232C21.9807 18.2853 21.3453 18.4807 20.9227 18.6453C20.3627 18.8627 19.9627 19.1227 19.5427 19.5427C19.1233 19.9627 18.8627 20.3627 18.6453 20.9227C18.4807 21.3453 18.2853 21.9807 18.232 23.1507C18.1747 24.416 18.162 24.796 18.162 28C18.162 31.204 18.1747 31.584 18.232 32.8493C18.2853 34.0193 18.4807 34.6547 18.6453 35.0774C18.8376 35.5986 19.1442 36.0701 19.5427 36.4574C19.9298 36.8558 20.4014 37.1624 20.9227 37.3547C21.3453 37.5194 21.9807 37.7147 23.1507 37.768C24.416 37.8254 24.7953 37.838 28 37.838C31.2047 37.838 31.584 37.8254 32.8493 37.768C34.0193 37.7147 34.6547 37.5194 35.0774 37.3547C35.6373 37.1373 36.0374 36.8774 36.4574 36.4574C36.8558 36.0702 37.1624 35.5986 37.3547 35.0774C37.5194 34.6547 37.7147 34.0193 37.768 32.8493C37.8254 31.584 37.838 31.204 37.838 28C37.838 24.796 37.8254 24.416 37.768 23.1507C37.7147 21.9807 37.5194 21.3453 37.3547 20.9227C37.1373 20.3627 36.8774 19.9627 36.4574 19.5427C36.0374 19.1233 35.6373 18.8627 35.0774 18.6453C34.6547 18.4807 34.0193 18.2853 32.8493 18.232ZM26.4678 31.6992C26.9536 31.9004 27.4742 32.004 28 32.004C29.062 32.004 30.0804 31.5821 30.8312 30.8312C31.5822 30.0804 32.0041 29.0619 32.0041 28C32.0041 26.9381 31.5822 25.9196 30.8312 25.1687C30.0804 24.4178 29.062 23.996 28 23.996C27.4742 23.996 26.9536 24.0996 26.4678 24.3008C25.9819 24.502 25.5406 24.7969 25.1688 25.1687C24.797 25.5405 24.502 25.9819 24.3008 26.4677C24.0996 26.9535 23.996 27.4742 23.996 28C23.996 28.5258 24.0996 29.0465 24.3008 29.5323C24.502 30.0181 24.797 30.4595 25.1688 30.8312C25.5406 31.203 25.9819 31.498 26.4678 31.6992ZM23.6386 23.6386C24.7953 22.4818 26.3642 21.832 28 21.832C29.6359 21.832 31.2048 22.4818 32.3615 23.6386C33.5181 24.7953 34.168 26.3642 34.168 28C34.168 29.6358 33.5181 31.2047 32.3615 32.3615C31.2048 33.5181 29.6359 34.168 28 34.168C26.3642 34.168 24.7953 33.5181 23.6386 32.3615C22.4819 31.2047 21.832 29.6358 21.832 28C21.832 26.3642 22.4819 24.7953 23.6386 23.6386ZM35.5357 22.751C35.8091 22.4775 35.9627 22.1067 35.9627 21.72C35.9627 21.3333 35.8091 20.9625 35.5357 20.689C35.2622 20.4156 34.8914 20.262 34.5047 20.262C34.118 20.262 33.7471 20.4156 33.4737 20.689C33.2003 20.9625 33.0467 21.3333 33.0467 21.72C33.0467 22.1067 33.2003 22.4775 33.4737 22.751C33.7471 23.0244 34.118 23.178 34.5047 23.178C34.8914 23.178 35.2622 23.0244 35.5357 22.751Z" fill="#F8F8F8"/>
</svg>
