<svg width="255" height="65" viewBox="0 0 255 65" fill="none" xmlns="http://www.w3.org/2000/svg">
<path d="M20.7891 18.9141V21.3516H17.7656V32.1094H14.7656V10.8281H17.7656V18.9141H20.7891ZM1.61719 26.9062V12.8672H4.59375V24.4336C7.32422 24.3867 10.2539 24.1289 13.3359 23.5078L13.6406 25.9922C10.0664 26.7188 6.60938 26.9062 3.46875 26.9062H1.61719ZM32.5547 12.5859V22.8281H22.3125V12.5859H32.5547ZM24.7734 31.7812V24.8672H27.75V29.3906H39.375V31.7812H24.7734ZM25.2656 20.4844H29.6016V14.9766H25.2656V20.4844ZM35.6016 26.3906V10.8281H38.6016V16.9688H41.4844V19.4297H38.6016V26.3906H35.6016ZM49.3359 12.2578C52.7227 12.2461 55.2305 14.4258 55.2422 17.4844C55.2305 20.5547 52.7227 22.7227 49.3359 22.7344C45.9727 22.7227 43.3945 20.5547 43.4062 17.4844C43.3945 14.4258 45.9727 12.2461 49.3359 12.2578ZM42.5156 25.4062C46.3242 25.418 51.5977 25.3711 56.1562 24.7266L56.3906 26.8828C51.6562 27.8086 46.5938 27.8438 42.8672 27.8438L42.5156 25.4062ZM46.3828 17.4844C46.3711 19.1719 47.6484 20.1445 49.3359 20.1328C51.0352 20.1445 52.3242 19.1719 52.3359 17.4844C52.3242 15.8203 51.0352 14.8359 49.3359 14.8359C47.6484 14.8359 46.3711 15.8203 46.3828 17.4844ZM57.375 32.2031V10.8281H60.3516V32.2031H57.375ZM86.5547 10.8516V26.1797H83.5547V10.8516H86.5547ZM69.0234 17.5781C69.0234 14.4492 71.5781 12.1992 74.8594 12.2109C78.1289 12.1992 80.6836 14.4492 80.6953 17.5781C80.6836 20.7539 78.1289 22.9922 74.8594 22.9922C71.5781 22.9922 69.0234 20.7539 69.0234 17.5781ZM71.9531 17.5781C71.9297 19.3594 73.1836 20.3906 74.8594 20.3906C76.4766 20.3906 77.7305 19.3594 77.7422 17.5781C77.7305 15.8438 76.4766 14.8008 74.8594 14.8125C73.1836 14.8008 71.9297 15.8438 71.9531 17.5781ZM72.2578 31.7812V24.6328H75.2812V29.3906H87.1172V31.7812H72.2578ZM99.0469 24.1172C103.711 24.1172 106.641 25.5938 106.664 28.1484C106.641 30.668 103.711 32.168 99.0469 32.1562C94.418 32.168 91.4414 30.668 91.4531 28.1484C91.4414 25.5938 94.418 24.1172 99.0469 24.1172ZM89.4844 22.7578V20.3438H96.75V16.6172H99.7031V20.3438H108.844V22.7578H89.4844ZM91.6641 14.1328V11.7891H106.547V13.5234C106.559 15.2227 106.559 17.0508 105.938 19.2422L103.008 18.9609C103.488 17.0273 103.547 15.5859 103.57 14.1328H91.6641ZM94.4297 28.1484C94.418 29.2969 96.1055 29.8828 99.0469 29.8828C101.988 29.8828 103.688 29.2969 103.688 28.1484C103.688 26.9648 101.988 26.332 99.0469 26.3438C96.1055 26.332 94.418 26.9648 94.4297 28.1484ZM118.453 16.6406C118.441 20.0859 120.223 23.7773 123.797 25.2656L122.18 27.6094C119.672 26.543 117.938 24.4219 116.977 21.8438C116.016 24.6445 114.246 26.9883 111.727 28.1484L110.016 25.7812C113.555 24.1992 115.383 20.25 115.383 16.6406V15.3281H110.859V12.8906H122.906V15.3281H118.453V16.6406ZM125.016 32.1562V10.8281H128.039V32.1562H125.016ZM148.219 16.1719V18.5625H133.383V11.1562H136.359V16.1719H148.219ZM130.922 22.8281V20.3906H150.422V22.8281H130.922ZM133.148 28.125C133.148 25.6055 135.961 24.1758 140.625 24.1641C145.254 24.1758 148.031 25.6055 148.055 28.125C148.031 30.668 145.254 32.0859 140.625 32.0859C135.961 32.0859 133.148 30.668 133.148 28.125ZM136.195 28.125C136.184 29.2383 137.672 29.8008 140.625 29.8125C143.52 29.8008 145.043 29.2383 145.055 28.125C145.043 26.9883 143.52 26.5078 140.625 26.4844C137.672 26.5078 136.184 26.9883 136.195 28.125ZM157.992 30V13.0312H164.648C168.504 13.0312 170.719 15.4102 170.719 18.75C170.719 22.1367 168.469 24.4688 164.555 24.4688H161.508V30H157.992ZM161.508 21.6328H163.992C166.078 21.6328 167.098 20.4609 167.086 18.75C167.098 17.0625 166.078 15.9258 163.992 15.9141H161.508V21.6328ZM172.289 15.9375V13.0312H186.188V15.9375H180.984V30H177.492V15.9375H172.289ZM201.094 14.4844C201.094 17.2383 202.57 19.9805 205.969 21.1172L204.352 23.4609C202.09 22.6289 200.531 21.0586 199.629 19.0781C198.715 21.3164 197.051 23.0625 194.578 23.9531L192.961 21.6094C196.523 20.4375 198.059 17.5195 198.07 14.4609V12.1406H201.094V14.4844ZM196.875 31.7812V24.9375H199.898V29.3906H211.523V31.7812H196.875ZM204.094 17.7891V15.375H208.102V10.8516H211.078V26.6016H208.102V17.7891H204.094ZM220.664 14.625C220.664 16.9336 221.859 19.207 224.695 20.2969L223.102 22.5703C221.273 21.8789 220.02 20.6133 219.258 19.043C218.484 20.8828 217.148 22.418 215.156 23.25L213.539 20.9531C216.551 19.6289 217.758 17.0039 217.758 14.625V12.1172H220.664V14.625ZM217.5 28.1719C217.488 25.6758 220.359 24.1758 224.883 24.1875C229.383 24.1758 232.266 25.6758 232.289 28.1719C232.266 30.6445 229.383 32.168 224.883 32.1562C220.359 32.168 217.488 30.6445 217.5 28.1719ZM220.5 28.1719C220.477 29.3203 222.082 29.9062 224.883 29.9062C227.66 29.9062 229.266 29.3203 229.266 28.1719C229.266 27.0117 227.66 26.4141 224.883 26.4141C222.082 26.4141 220.477 27.0117 220.5 28.1719ZM224.766 23.2266V11.2266H227.555V16.0547H229.336V10.8516H232.172V23.8828H229.336V18.4688H227.555V23.2266H224.766ZM252.422 10.8281V22.8047H249.445V10.8281H252.422ZM235.805 21.75V12.0469H238.805V19.2539C242.039 19.2188 244.77 18.9844 247.641 18.375L247.992 20.7891C244.676 21.4922 241.488 21.75 237.656 21.75H235.805ZM238.172 31.8984V23.6719H252.422V31.8984H238.172ZM241.102 29.5547H249.492V26.0156H241.102V29.5547ZM12.0938 40.1328C17.0039 40.1328 19.8398 41.4219 19.8516 43.7656C19.8398 46.1445 17.0039 47.4219 12.0938 47.4219C7.17188 47.4219 4.3125 46.1445 4.3125 43.7656C4.3125 41.4219 7.17188 40.1328 12.0938 40.1328ZM2.36719 50.7969V48.4297H21.8203V50.7969H2.36719ZM4.61719 54.2188V52.0391H19.4531V57.4766H7.57031V58.7656H20.0156V61.0156H4.64062V55.3906H16.5V54.2188H4.61719ZM7.45312 43.7656C7.44141 44.8086 8.96484 45.2188 12.0938 45.2188C15.2461 45.2188 16.7578 44.8086 16.7578 43.7656C16.7578 42.8164 15.2461 42.3125 12.0938 42.3125C8.96484 42.3125 7.44141 42.8164 7.45312 43.7656ZM36.9141 45.6406C36.9023 49.0859 38.6836 52.7773 42.2578 54.2656L40.6406 56.6094C38.1328 55.543 36.3984 53.4219 35.4375 50.8438C34.4766 53.6445 32.707 55.9883 30.1875 57.1484L28.4766 54.7812C32.0156 53.1992 33.8438 49.25 33.8438 45.6406V44.3281H29.3203V41.8906H41.3672V44.3281H36.9141V45.6406ZM43.4766 61.1562V39.8281H46.5V61.1562H43.4766ZM66.5859 40.7891V42.5C66.5977 44.1641 66.5977 46.0039 66.082 48.4531H68.9062V50.8672H49.3828V48.4531H63.0703C63.5273 46.332 63.5859 44.6797 63.6094 43.1797H51.7734V40.7891H66.5859ZM51.7031 60.9219V53.1172H66.5156V60.9219H51.7031ZM54.6328 58.5312H63.5391V55.4609H54.6328V58.5312ZM92.4844 39.8281V47.7969H95.625V50.3047H92.4844V61.1562H89.4844V39.8281H92.4844ZM76.3359 56.2109V41.5156H79.3125V46.7188H83.7422V41.5156H86.7188V56.2109H76.3359ZM79.3125 53.7969H83.7422V49.0391H79.3125V53.7969ZM115.922 56.3281V58.7891H96.3984V56.3281H104.625V53.1172H98.6484V45.9453H110.719V43.6016H98.625V41.2109H113.672V48.2891H101.648V50.6797H114.164V53.1172H107.602V56.3281H115.922ZM130.523 44.6562C130.512 48.4766 132.141 52.332 135.562 53.9844L133.758 56.375C131.473 55.2383 129.926 53.1289 129.047 50.5625C128.109 53.3164 126.469 55.5781 124.055 56.7734L122.203 54.3594C125.824 52.6953 127.523 48.6172 127.523 44.6562V41.4688H130.523V44.6562ZM136.5 61.1562V39.8281H139.5V48.0547H142.641V50.5859H139.5V61.1562H136.5ZM162.867 49.9297V52.3203H143.414V49.9297H147.797V47.375C146.238 46.6836 145.359 45.6289 145.359 44.2578C145.359 41.6797 148.395 40.1445 153.141 40.1328C157.852 40.1445 160.887 41.6797 160.898 44.2578C160.887 45.6523 159.984 46.7188 158.391 47.3984V49.9297H162.867ZM145.641 57.2656C145.641 54.8047 148.441 53.4336 153.117 53.4453C157.723 53.4336 160.523 54.8047 160.547 57.2656C160.523 59.7852 157.723 61.1328 153.117 61.1328C148.441 61.1328 145.641 59.7852 145.641 57.2656ZM148.477 44.2578C148.453 45.4297 150.129 46.0273 153.141 46.0156C156.117 46.0273 157.805 45.4297 157.805 44.2578C157.805 43.0625 156.117 42.4297 153.141 42.4297C150.129 42.4297 148.453 43.0625 148.477 44.2578ZM148.688 57.2656C148.676 58.3555 150.164 58.9062 153.117 58.9062C156.012 58.9062 157.535 58.3555 157.547 57.2656C157.535 56.2109 156.012 55.707 153.117 55.6953C150.164 55.707 148.676 56.2109 148.688 57.2656ZM150.82 49.9297H155.414V48.1367C154.711 48.2305 153.949 48.2656 153.141 48.2656C152.309 48.2656 151.535 48.2188 150.82 48.1367V49.9297ZM174.445 43.0859V45.4531H164.133V43.0859H167.836V40.4141H170.789V43.0859H174.445ZM164.625 51.4766C164.625 48.5117 166.617 46.4258 169.336 46.4141C172.066 46.4258 174.012 48.5117 174.023 51.4766C174.012 54.4531 172.066 56.5625 169.336 56.5625C166.617 56.5625 164.625 54.4531 164.625 51.4766ZM167.25 51.4766C167.25 53.1055 168.094 54.0312 169.336 54.0312C170.531 54.0312 171.387 53.1055 171.398 51.4766C171.387 49.8711 170.531 48.8984 169.336 48.8984C168.094 48.8984 167.25 49.8711 167.25 51.4766ZM175.242 60.2422V40.25H178.031V48.5H179.766V39.8281H182.602V61.1562H179.766V50.8906H178.031V60.2422H175.242ZM204.422 56.2344V58.6719H184.898V56.2344H193.125V52.2969H186.961V41.1875H189.961V44.4922H199.266V41.1875H202.242V52.2969H196.102V56.2344H204.422ZM189.961 49.9062H199.266V46.8828H189.961V49.9062ZM212.484 45.1953C212.473 48.6523 213.434 52.2148 216.352 54.0781L214.734 56.3984C212.883 55.2852 211.723 53.4336 211.043 51.2539C210.281 53.668 209.004 55.6953 207.07 56.8672L205.242 54.6641C208.406 52.707 209.578 48.9453 209.578 45.3359V41.6562H212.484V45.1953ZM214.102 49.4609V47.0234H216.867V40.1328H219.656V60.1719H216.867V49.4609H214.102ZM221.273 61.1562V39.8281H224.133V61.1562H221.273ZM245.906 56.2109V58.6719H226.383V56.2109H230.742V50.9844C229.09 49.9883 228.094 48.4766 228.094 46.6016C228.094 43.1445 231.469 40.8711 236.109 40.8594C240.727 40.8711 244.137 43.1445 244.148 46.6016C244.137 48.4414 243.176 49.9297 241.57 50.9258V56.2109H245.906ZM231.047 46.6016C231.047 48.6875 233.051 49.9766 236.109 49.9766C239.121 49.9766 241.184 48.6875 241.195 46.6016C241.184 44.457 239.121 43.2148 236.109 43.2266C233.051 43.2148 231.047 44.457 231.047 46.6016ZM233.695 56.2109H238.547V52.0625C237.785 52.2148 236.965 52.2969 236.109 52.2969C235.254 52.2969 234.445 52.2148 233.695 52.0742V56.2109ZM249.891 59.2109C248.789 59.2109 247.898 58.332 247.922 57.2422C247.898 56.1641 248.789 55.2852 249.891 55.2969C250.934 55.2852 251.836 56.1641 251.836 57.2422C251.836 58.332 250.934 59.2109 249.891 59.2109Z" fill="white"/>
<g filter="url(#filter0_d_1436_1004)">
<circle cx="179" cy="6" r="2" fill="#F8F8F8"/>
</g>
<g filter="url(#filter1_d_1436_1004)">
<circle cx="164" cy="6" r="2" fill="#F8F8F8"/>
</g>
<defs>
<filter id="filter0_d_1436_1004" x="173" y="0" width="12" height="12" filterUnits="userSpaceOnUse" color-interpolation-filters="sRGB">
<feFlood flood-opacity="0" result="BackgroundImageFix"/>
<feColorMatrix in="SourceAlpha" type="matrix" values="0 0 0 0 0 0 0 0 0 0 0 0 0 0 0 0 0 0 127 0" result="hardAlpha"/>
<feOffset/>
<feGaussianBlur stdDeviation="2"/>
<feComposite in2="hardAlpha" operator="out"/>
<feColorMatrix type="matrix" values="0 0 0 0 0 0 0 0 0 0 0 0 0 0 0 0 0 0 0.2 0"/>
<feBlend mode="normal" in2="BackgroundImageFix" result="effect1_dropShadow_1436_1004"/>
<feBlend mode="normal" in="SourceGraphic" in2="effect1_dropShadow_1436_1004" result="shape"/>
</filter>
<filter id="filter1_d_1436_1004" x="158" y="0" width="12" height="12" filterUnits="userSpaceOnUse" color-interpolation-filters="sRGB">
<feFlood flood-opacity="0" result="BackgroundImageFix"/>
<feColorMatrix in="SourceAlpha" type="matrix" values="0 0 0 0 0 0 0 0 0 0 0 0 0 0 0 0 0 0 127 0" result="hardAlpha"/>
<feOffset/>
<feGaussianBlur stdDeviation="2"/>
<feComposite in2="hardAlpha" operator="out"/>
<feColorMatrix type="matrix" values="0 0 0 0 0 0 0 0 0 0 0 0 0 0 0 0 0 0 0.2 0"/>
<feBlend mode="normal" in2="BackgroundImageFix" result="effect1_dropShadow_1436_1004"/>
<feBlend mode="normal" in="SourceGraphic" in2="effect1_dropShadow_1436_1004" result="shape"/>
</filter>
</defs>
</svg>
