<svg width="19" height="21" viewBox="0 0 19 21" fill="none" xmlns="http://www.w3.org/2000/svg">
<path d="M2.33334 20.4167C1.69167 20.4167 1.14217 20.188 0.684835 19.7307C0.227502 19.2733 -0.000775797 18.7242 1.98076e-06 18.0833V7.58333C1.98076e-06 7.21389 0.0828351 6.86389 0.248502 6.53333C0.414168 6.20278 0.642447 5.93056 0.933335 5.71667L7.93334 0.466667C8.14722 0.311111 8.37084 0.194444 8.60417 0.116667C8.8375 0.0388888 9.08056 0 9.33333 0C9.58611 0 9.82917 0.0388888 10.0625 0.116667C10.2958 0.194444 10.5194 0.311111 10.7333 0.466667L17.7333 5.71667C18.025 5.93056 18.2537 6.20278 18.4193 6.53333C18.585 6.86389 18.6674 7.21389 18.6667 7.58333V18.0833C18.6667 18.725 18.438 19.2745 17.9807 19.7318C17.5233 20.1892 16.9742 20.4174 16.3333 20.4167H11.6667V12.25H7V20.4167H2.33334Z" fill="#1B1A20"/>
</svg>
