<svg width="25" height="25" viewBox="0 0 25 25" fill="none" xmlns="http://www.w3.org/2000/svg">
<path d="M3.66663 24.0833C2.84163 24.0833 2.13513 23.8145 1.54713 23.2769C0.959128 22.7393 0.665629 22.0938 0.666629 21.3405V8.99762C0.666629 8.56333 0.773128 8.15191 0.986128 7.76334C1.19913 7.37476 1.49263 7.05476 1.86663 6.80333L10.8666 0.631907C11.1416 0.44905 11.4291 0.311907 11.7291 0.220479C12.0291 0.12905 12.3416 0.0833359 12.6666 0.0833359C12.9916 0.0833359 13.3041 0.12905 13.6041 0.220479C13.9041 0.311907 14.1916 0.44905 14.4666 0.631907L23.4666 6.80333C23.8416 7.05476 24.1356 7.37476 24.3486 7.76334C24.5616 8.15191 24.6676 8.56333 24.6666 8.99762V21.3405C24.6666 22.0948 24.3726 22.7407 23.7846 23.2783C23.1966 23.8159 22.4906 24.0842 21.6666 24.0833H15.6666V14.4833H9.66663V24.0833H3.66663Z" fill="#1B1A20"/>
</svg>
