<svg width="191" height="78" viewBox="0 0 191 78" fill="none" xmlns="http://www.w3.org/2000/svg">
<rect x="6" y="65" width="180" height="10" fill="#9047ED"/>
<path d="M15.6953 12.1602V13.1094H13.0762V21.3711H11.9688V5.86719H13.0762V12.1602H15.6953ZM1.82617 17.3809V7.39648H2.91602V16.4316H3.02148C5.35938 16.4404 7.70605 16.2646 10.334 15.7109L10.4746 16.6777C7.77637 17.2139 5.41211 17.3809 3.02148 17.3809H1.82617ZM24.502 7.30859V14.3574H17.418V7.30859H24.502ZM18.4902 13.4434H23.4297V8.24023H18.4902V13.4434ZM19.1758 21.002V16.168H20.2656V20.0703H29.5293V21.002H19.1758ZM27.666 17.2402V5.84961H28.7734V10.666H31.1641V11.5977H28.7734V17.2402H27.666ZM37.334 7.02734C39.7686 7.02734 41.4736 8.47754 41.4824 10.6133C41.4736 12.749 39.7686 14.1992 37.334 14.1992C34.8994 14.1992 33.1855 12.749 33.1855 10.6133C33.1855 8.47754 34.8994 7.02734 37.334 7.02734ZM32.3418 16.9062C35.2422 16.9238 39.2236 16.9062 42.6953 16.3789L42.7832 17.2227C39.1973 17.8818 35.3389 17.8906 32.5176 17.8906L32.3418 16.9062ZM34.2754 10.6133C34.2666 12.1338 35.5498 13.2236 37.334 13.2148C39.1094 13.2236 40.3926 12.1338 40.3926 10.6133C40.3926 9.09277 39.1094 8.01172 37.334 8.01172C35.5498 8.01172 34.2666 9.09277 34.2754 10.6133ZM43.7676 21.3887V5.86719H44.875V21.3887H43.7676ZM64.8965 5.86719V17.2754H63.7891V5.86719H64.8965ZM52.5566 10.7539C52.5479 8.53906 54.2617 6.99219 56.5645 6.99219C58.8584 6.99219 60.5635 8.53906 60.5723 10.7539C60.5635 12.9951 58.8584 14.542 56.5645 14.5332C54.2617 14.542 52.5479 12.9951 52.5566 10.7539ZM53.6289 10.7539C53.6289 12.3799 54.8857 13.5576 56.5645 13.5488C58.2256 13.5576 59.4912 12.3799 59.5 10.7539C59.4912 9.1543 58.2256 7.96777 56.5645 7.95898C54.8857 7.96777 53.6289 9.1543 53.6289 10.7539ZM55 21.002V16.0977H56.1074V20.0703H65.4062V21.002H55ZM74.7227 15.6934C78.0361 15.7021 80.1367 16.7393 80.1543 18.5234C80.1367 20.2812 78.0361 21.3184 74.7227 21.3184C71.418 21.3184 69.3262 20.2812 69.3262 18.5234C69.3262 16.7393 71.418 15.7021 74.7227 15.6934ZM67.709 14.1113V13.1973H73.7383V10.1035H74.8281V13.1973H81.8418V14.1113H67.709ZM69.4141 7.60742V6.67578H79.9961V8.01172C79.9961 9.26855 79.9961 10.5078 79.5742 12.1074L78.4844 11.9844C78.9062 10.3848 78.9062 9.2334 78.9062 8.01172V7.60742H69.4141ZM70.4336 18.5234C70.416 19.6748 72.1475 20.4219 74.7227 20.4219C77.3154 20.4219 79.0205 19.6748 79.0293 18.5234C79.0205 17.3369 77.3154 16.5811 74.7227 16.5723C72.1475 16.5811 70.416 17.3369 70.4336 18.5234ZM88.6621 10.8066C88.6621 13.4697 90.7891 16.1416 92.9688 17.0996L92.3359 17.9785C90.543 17.1436 88.8467 15.2979 88.126 13.0918C87.3965 15.4121 85.709 17.4688 83.9688 18.3652L83.3008 17.4863C85.4102 16.4492 87.5459 13.4961 87.5547 10.8066V8.43359H83.7754V7.48438H92.4941V8.43359H88.6621V10.8066ZM94.8848 21.3711V5.86719H95.9922V21.3711H94.8848ZM111.32 10.3496V11.2812H100.809V6.18359H101.898V10.3496H111.32ZM98.8223 14.1816V13.25H112.955V14.1816H98.8223ZM100.545 18.5059C100.545 16.7041 102.549 15.7021 105.889 15.6934C109.202 15.7021 111.197 16.7041 111.197 18.5059C111.197 20.2812 109.202 21.292 105.889 21.3008C102.549 21.292 100.545 20.2812 100.545 18.5059ZM101.67 18.5059C101.67 19.6748 103.287 20.4043 105.889 20.4043C108.464 20.4043 110.081 19.6748 110.09 18.5059C110.081 17.3105 108.464 16.6074 105.889 16.5898C103.287 16.6074 101.67 17.3105 101.67 18.5059ZM119.547 20V7.27344H123.713C126.455 7.27344 127.853 8.9873 127.844 11.2285C127.853 13.4609 126.455 15.1836 123.73 15.1836H120.795V20H119.547ZM120.795 14.0586H123.678C125.664 14.0674 126.613 12.8545 126.613 11.2285C126.613 9.58496 125.664 8.38965 123.66 8.39844H120.795V14.0586ZM129.479 8.39844V7.27344H138.777V8.39844H134.77V20H133.504V8.39844H129.479ZM149.711 8.87305C149.702 11.0791 151.434 13.1445 153.631 13.9531L152.998 14.832C151.284 14.1289 149.834 12.7139 149.175 10.9473C148.524 12.8984 147.03 14.4453 145.211 15.2012L144.613 14.2871C146.854 13.4346 148.621 11.2461 148.621 8.80273V6.79883H149.711V8.87305ZM147.408 21.002V16.168H148.516V20.0703H157.709V21.002H147.408ZM152.594 10.5957V9.64648H156.232V5.86719H157.34V17.5391H156.232V10.5957H152.594ZM164.635 9.04883C164.635 10.7803 165.944 12.5469 167.922 13.2676L167.324 14.1465C165.795 13.5488 164.652 12.3623 164.107 10.9736C163.545 12.4854 162.367 13.8652 160.82 14.5508L160.205 13.6895C162.209 12.8105 163.571 10.7715 163.58 9.04883V6.83398H164.635V9.04883ZM163 18.5938C163 16.8711 164.951 15.8691 168.168 15.8691C171.35 15.8691 173.318 16.8711 173.318 18.5938C173.318 20.3252 171.35 21.3184 168.168 21.3184C164.951 21.3184 163 20.3252 163 18.5938ZM164.107 18.5938C164.09 19.7363 165.672 20.4482 168.168 20.4395C170.629 20.4482 172.211 19.7363 172.229 18.5938C172.211 17.4512 170.629 16.748 168.168 16.748C165.672 16.748 164.09 17.4512 164.107 18.5938ZM168.801 14.9902V6.16602H169.855V10.1738H172.176V5.86719H173.23V15.4824H172.176V11.1055H169.855V14.9902H168.801ZM188.4 5.86719V14.6914H187.311V5.86719H188.4ZM176.676 13.3555V6.78125H177.801V12.4062H177.906C180.49 12.3975 182.854 12.2217 185.43 11.6855L185.605 12.6172C182.916 13.1709 180.552 13.3555 177.906 13.3555H176.676ZM178.416 21.1426V15.4473H188.4V21.1426H178.416ZM179.523 20.2109H187.328V16.3438H179.523V20.2109ZM31.1836 37.8438V42.3359H24.3477C24.6602 46.0664 27.043 49.7969 32.668 51.5156L29.7773 55.8516C25.8516 54.6992 23.1562 52.3164 21.5547 49.2891C19.9141 52.5898 17.1016 55.2461 12.9414 56.5938L10.0508 52.1406C15.7734 50.3633 18.2539 46.3203 18.5664 42.3359H11.5352V37.8438H31.1836ZM15.9102 71.3594V58H40.1289V71.3594H15.9102ZM21.418 66.8672H34.6211V62.4141H21.418V66.8672ZM34.5039 56.5547V35.9297H40.1289V56.5547H34.5039ZM74.8555 35.8906V71.75H69.1523V35.8906H74.8555ZM44.5039 59.1719C45.7148 59.1719 47.0234 59.1523 48.3711 59.1328V43.5078H45.4805V39.0156H65.7148V43.5078H62.7852V58.5273C64.2305 58.4102 65.6367 58.2734 67.0039 58.1172L67.2773 62.2578C59.7188 63.5273 51.5352 63.6836 45.0117 63.7031L44.5039 59.1719ZM53.8008 59.0156C54.9531 58.9961 56.1445 58.9375 57.3164 58.8789V43.5078H53.8008V59.0156ZM99.4648 38.7812V43.3516H86.5742V48.7422H97.9023V53.1562H86.5742V59.2891C91.7109 59.2305 96.0078 59.0156 100.832 58.3125L101.379 62.8047C95.7344 63.6055 90.4805 63.7422 84.1523 63.7812H80.9883V38.7812H99.4648ZM103.723 71.75V35.8906H109.426V71.75H103.723ZM123.41 38.3516C128.898 38.332 132.941 43.3125 132.98 51.1641C132.941 59.1328 128.898 64.0938 123.41 64.0938C117.844 64.0938 113.762 59.1328 113.801 51.1641C113.762 43.3125 117.844 38.332 123.41 38.3516ZM119.27 51.1641C119.23 56.3789 120.91 58.9766 123.41 58.9766C125.93 58.9766 127.57 56.3789 127.59 51.1641C127.57 46.0469 125.93 43.4102 123.41 43.4297C120.91 43.4102 119.23 46.0469 119.27 51.1641ZM136.535 71.75V35.8906H142.16V49.1719H147.238V53.8203H142.16V71.75H136.535ZM178.41 35.8906V71.8281H172.746V35.8906H178.41ZM149.23 51.1641C149.23 43.3125 153.312 38.332 158.84 38.3516C164.289 38.332 168.352 43.3125 168.371 51.1641C168.352 59.1328 164.289 64.0938 158.84 64.0938C153.312 64.0938 149.23 59.1328 149.23 51.1641ZM154.699 51.1641C154.66 56.3789 156.32 58.9766 158.84 58.9766C161.281 58.9766 162.922 56.3789 162.941 51.1641C162.922 46.0469 161.281 43.4102 158.84 43.4297C156.32 43.4102 154.66 46.0469 154.699 51.1641Z" fill="#F8F8F8"/>
<g filter="url(#filter0_d_1449_145)">
<circle cx="134" cy="5" r="1" fill="#F8F8F8"/>
</g>
<g filter="url(#filter1_d_1449_145)">
<circle cx="123" cy="5" r="1" fill="#F8F8F8"/>
</g>
<defs>
<filter id="filter0_d_1449_145" x="129" y="0" width="10" height="10" filterUnits="userSpaceOnUse" color-interpolation-filters="sRGB">
<feFlood flood-opacity="0" result="BackgroundImageFix"/>
<feColorMatrix in="SourceAlpha" type="matrix" values="0 0 0 0 0 0 0 0 0 0 0 0 0 0 0 0 0 0 127 0" result="hardAlpha"/>
<feOffset/>
<feGaussianBlur stdDeviation="2"/>
<feComposite in2="hardAlpha" operator="out"/>
<feColorMatrix type="matrix" values="0 0 0 0 0 0 0 0 0 0 0 0 0 0 0 0 0 0 0.2 0"/>
<feBlend mode="normal" in2="BackgroundImageFix" result="effect1_dropShadow_1449_145"/>
<feBlend mode="normal" in="SourceGraphic" in2="effect1_dropShadow_1449_145" result="shape"/>
</filter>
<filter id="filter1_d_1449_145" x="118" y="0" width="10" height="10" filterUnits="userSpaceOnUse" color-interpolation-filters="sRGB">
<feFlood flood-opacity="0" result="BackgroundImageFix"/>
<feColorMatrix in="SourceAlpha" type="matrix" values="0 0 0 0 0 0 0 0 0 0 0 0 0 0 0 0 0 0 127 0" result="hardAlpha"/>
<feOffset/>
<feGaussianBlur stdDeviation="2"/>
<feComposite in2="hardAlpha" operator="out"/>
<feColorMatrix type="matrix" values="0 0 0 0 0 0 0 0 0 0 0 0 0 0 0 0 0 0 0.2 0"/>
<feBlend mode="normal" in2="BackgroundImageFix" result="effect1_dropShadow_1449_145"/>
<feBlend mode="normal" in="SourceGraphic" in2="effect1_dropShadow_1449_145" result="shape"/>
</filter>
</defs>
</svg>
