<svg width="191" height="80" viewBox="0 0 191 80" fill="none" xmlns="http://www.w3.org/2000/svg">
<rect x="6" y="65" width="180" height="10" fill="#9047ED"/>
<path d="M15.6953 14.1602V15.1094H13.0762V23.3711H11.9688V7.86719H13.0762V14.1602H15.6953ZM1.82617 19.3809V9.39648H2.91602V18.4316H3.02148C5.35938 18.4404 7.70605 18.2646 10.334 17.7109L10.4746 18.6777C7.77637 19.2139 5.41211 19.3809 3.02148 19.3809H1.82617ZM24.502 9.30859V16.3574H17.418V9.30859H24.502ZM18.4902 15.4434H23.4297V10.2402H18.4902V15.4434ZM19.1758 23.002V18.168H20.2656V22.0703H29.5293V23.002H19.1758ZM27.666 19.2402V7.84961H28.7734V12.666H31.1641V13.5977H28.7734V19.2402H27.666ZM37.334 9.02734C39.7686 9.02734 41.4736 10.4775 41.4824 12.6133C41.4736 14.749 39.7686 16.1992 37.334 16.1992C34.8994 16.1992 33.1855 14.749 33.1855 12.6133C33.1855 10.4775 34.8994 9.02734 37.334 9.02734ZM32.3418 18.9062C35.2422 18.9238 39.2236 18.9062 42.6953 18.3789L42.7832 19.2227C39.1973 19.8818 35.3389 19.8906 32.5176 19.8906L32.3418 18.9062ZM34.2754 12.6133C34.2666 14.1338 35.5498 15.2236 37.334 15.2148C39.1094 15.2236 40.3926 14.1338 40.3926 12.6133C40.3926 11.0928 39.1094 10.0117 37.334 10.0117C35.5498 10.0117 34.2666 11.0928 34.2754 12.6133ZM43.7676 23.3887V7.86719H44.875V23.3887H43.7676ZM64.8965 7.86719V19.2754H63.7891V7.86719H64.8965ZM52.5566 12.7539C52.5479 10.5391 54.2617 8.99219 56.5645 8.99219C58.8584 8.99219 60.5635 10.5391 60.5723 12.7539C60.5635 14.9951 58.8584 16.542 56.5645 16.5332C54.2617 16.542 52.5479 14.9951 52.5566 12.7539ZM53.6289 12.7539C53.6289 14.3799 54.8857 15.5576 56.5645 15.5488C58.2256 15.5576 59.4912 14.3799 59.5 12.7539C59.4912 11.1543 58.2256 9.96777 56.5645 9.95898C54.8857 9.96777 53.6289 11.1543 53.6289 12.7539ZM55 23.002V18.0977H56.1074V22.0703H65.4062V23.002H55ZM74.7227 17.6934C78.0361 17.7021 80.1367 18.7393 80.1543 20.5234C80.1367 22.2812 78.0361 23.3184 74.7227 23.3184C71.418 23.3184 69.3262 22.2812 69.3262 20.5234C69.3262 18.7393 71.418 17.7021 74.7227 17.6934ZM67.709 16.1113V15.1973H73.7383V12.1035H74.8281V15.1973H81.8418V16.1113H67.709ZM69.4141 9.60742V8.67578H79.9961V10.0117C79.9961 11.2686 79.9961 12.5078 79.5742 14.1074L78.4844 13.9844C78.9062 12.3848 78.9062 11.2334 78.9062 10.0117V9.60742H69.4141ZM70.4336 20.5234C70.416 21.6748 72.1475 22.4219 74.7227 22.4219C77.3154 22.4219 79.0205 21.6748 79.0293 20.5234C79.0205 19.3369 77.3154 18.5811 74.7227 18.5723C72.1475 18.5811 70.416 19.3369 70.4336 20.5234ZM88.6621 12.8066C88.6621 15.4697 90.7891 18.1416 92.9688 19.0996L92.3359 19.9785C90.543 19.1436 88.8467 17.2979 88.126 15.0918C87.3965 17.4121 85.709 19.4688 83.9688 20.3652L83.3008 19.4863C85.4102 18.4492 87.5459 15.4961 87.5547 12.8066V10.4336H83.7754V9.48438H92.4941V10.4336H88.6621V12.8066ZM94.8848 23.3711V7.86719H95.9922V23.3711H94.8848ZM111.32 12.3496V13.2812H100.809V8.18359H101.898V12.3496H111.32ZM98.8223 16.1816V15.25H112.955V16.1816H98.8223ZM100.545 20.5059C100.545 18.7041 102.549 17.7021 105.889 17.6934C109.202 17.7021 111.197 18.7041 111.197 20.5059C111.197 22.2812 109.202 23.292 105.889 23.3008C102.549 23.292 100.545 22.2812 100.545 20.5059ZM101.67 20.5059C101.67 21.6748 103.287 22.4043 105.889 22.4043C108.464 22.4043 110.081 21.6748 110.09 20.5059C110.081 19.3105 108.464 18.6074 105.889 18.5898C103.287 18.6074 101.67 19.3105 101.67 20.5059ZM119.547 22V9.27344H123.713C126.455 9.27344 127.853 10.9873 127.844 13.2285C127.853 15.4609 126.455 17.1836 123.73 17.1836H120.795V22H119.547ZM120.795 16.0586H123.678C125.664 16.0674 126.613 14.8545 126.613 13.2285C126.613 11.585 125.664 10.3896 123.66 10.3984H120.795V16.0586ZM129.479 10.3984V9.27344H138.777V10.3984H134.77V22H133.504V10.3984H129.479ZM149.711 10.873C149.702 13.0791 151.434 15.1445 153.631 15.9531L152.998 16.832C151.284 16.1289 149.834 14.7139 149.175 12.9473C148.524 14.8984 147.03 16.4453 145.211 17.2012L144.613 16.2871C146.854 15.4346 148.621 13.2461 148.621 10.8027V8.79883H149.711V10.873ZM147.408 23.002V18.168H148.516V22.0703H157.709V23.002H147.408ZM152.594 12.5957V11.6465H156.232V7.86719H157.34V19.5391H156.232V12.5957H152.594ZM164.635 11.0488C164.635 12.7803 165.944 14.5469 167.922 15.2676L167.324 16.1465C165.795 15.5488 164.652 14.3623 164.107 12.9736C163.545 14.4854 162.367 15.8652 160.82 16.5508L160.205 15.6895C162.209 14.8105 163.571 12.7715 163.58 11.0488V8.83398H164.635V11.0488ZM163 20.5938C163 18.8711 164.951 17.8691 168.168 17.8691C171.35 17.8691 173.318 18.8711 173.318 20.5938C173.318 22.3252 171.35 23.3184 168.168 23.3184C164.951 23.3184 163 22.3252 163 20.5938ZM164.107 20.5938C164.09 21.7363 165.672 22.4482 168.168 22.4395C170.629 22.4482 172.211 21.7363 172.229 20.5938C172.211 19.4512 170.629 18.748 168.168 18.748C165.672 18.748 164.09 19.4512 164.107 20.5938ZM168.801 16.9902V8.16602H169.855V12.1738H172.176V7.86719H173.23V17.4824H172.176V13.1055H169.855V16.9902H168.801ZM188.4 7.86719V16.6914H187.311V7.86719H188.4ZM176.676 15.3555V8.78125H177.801V14.4062H177.906C180.49 14.3975 182.854 14.2217 185.43 13.6855L185.605 14.6172C182.916 15.1709 180.552 15.3555 177.906 15.3555H176.676ZM178.416 23.1426V17.4473H188.4V23.1426H178.416ZM179.523 22.2109H187.328V18.3438H179.523V22.2109ZM42.7852 65.0781V69.7266H10.0117V65.0781H42.7852ZM12.4727 45.3906V40.8984H40.168V45.3906H35.3242V55.6641H39.9727V60.1172H12.6289V55.6641H17.1992V45.3906H12.4727ZM22.8242 55.6641H29.7773V45.3906H22.8242V55.6641ZM77.3555 65.3125V69.8828H44.582V65.3125H58.1367V60.3125H48.2539V47.9688H68.1367V44.6094H48.2148V40.1172H73.6836V52.3438H53.8789V55.7812H74.5039V60.3125H63.6836V65.3125H77.3555ZM102.863 38.5938V59.5703H97.5508V51.1719H94.0742V46.6406H97.5508V38.5938H102.863ZM78.4492 55.2344C83.4102 53.418 85.1875 49.4727 85.207 45.5859V44.8438H79.8164V40.3906H95.7148V44.8438H90.6758V45.625C90.6562 49.375 92.3359 52.9492 96.9648 54.6875L94.1523 58.9844C91.2031 57.8906 89.2305 55.9375 87.9805 53.5156C86.7109 56.2305 84.582 58.418 81.3789 59.6484L78.4492 55.2344ZM85.0898 65.3906V60.9375H110.051V73.75H104.426V65.3906H85.0898ZM104.699 59.7266V37.8906H110.051V59.7266H104.699ZM143.02 56.1328V60.5469H117.473V40.3906H142.746V44.9219H123.215V48.2031H141.887V52.5781H123.215V56.1328H143.02ZM113.723 69.7266V65.1953H146.496V69.7266H113.723ZM178.645 37.8906V58.8281H173.059V54.6094H166.926V57.0703H149.738V40.5078H166.926V42.9688H173.059V37.8906H178.645ZM153.879 66.7578C153.879 62.3242 158.605 59.707 166.262 59.7266C174.016 59.707 178.742 62.3242 178.762 66.7578C178.742 71.2305 174.016 73.7891 166.262 73.75C158.605 73.7891 153.879 71.2305 153.879 66.7578ZM155.324 52.6172H161.418V44.9219H155.324V52.6172ZM159.465 66.7578C159.465 68.6133 161.789 69.5117 166.262 69.5312C170.832 69.5117 173.137 68.6133 173.176 66.7578C173.137 64.8047 170.832 63.9844 166.262 63.9844C161.789 63.9844 159.465 64.8047 159.465 66.7578ZM166.926 50.0781H173.059V47.3438H166.926V50.0781Z" fill="#F8F8F8"/>
<g filter="url(#filter0_d_887_740)">
<circle cx="134" cy="5" r="1" fill="#F8F8F8"/>
</g>
<g filter="url(#filter1_d_887_740)">
<circle cx="123" cy="5" r="1" fill="#F8F8F8"/>
</g>
<defs>
<filter id="filter0_d_887_740" x="129" y="0" width="10" height="10" filterUnits="userSpaceOnUse" color-interpolation-filters="sRGB">
<feFlood flood-opacity="0" result="BackgroundImageFix"/>
<feColorMatrix in="SourceAlpha" type="matrix" values="0 0 0 0 0 0 0 0 0 0 0 0 0 0 0 0 0 0 127 0" result="hardAlpha"/>
<feOffset/>
<feGaussianBlur stdDeviation="2"/>
<feComposite in2="hardAlpha" operator="out"/>
<feColorMatrix type="matrix" values="0 0 0 0 0 0 0 0 0 0 0 0 0 0 0 0 0 0 0.2 0"/>
<feBlend mode="normal" in2="BackgroundImageFix" result="effect1_dropShadow_887_740"/>
<feBlend mode="normal" in="SourceGraphic" in2="effect1_dropShadow_887_740" result="shape"/>
</filter>
<filter id="filter1_d_887_740" x="118" y="0" width="10" height="10" filterUnits="userSpaceOnUse" color-interpolation-filters="sRGB">
<feFlood flood-opacity="0" result="BackgroundImageFix"/>
<feColorMatrix in="SourceAlpha" type="matrix" values="0 0 0 0 0 0 0 0 0 0 0 0 0 0 0 0 0 0 127 0" result="hardAlpha"/>
<feOffset/>
<feGaussianBlur stdDeviation="2"/>
<feComposite in2="hardAlpha" operator="out"/>
<feColorMatrix type="matrix" values="0 0 0 0 0 0 0 0 0 0 0 0 0 0 0 0 0 0 0.2 0"/>
<feBlend mode="normal" in2="BackgroundImageFix" result="effect1_dropShadow_887_740"/>
<feBlend mode="normal" in="SourceGraphic" in2="effect1_dropShadow_887_740" result="shape"/>
</filter>
</defs>
</svg>
