<svg width="20" height="20" viewBox="0 0 20 20" fill="none" xmlns="http://www.w3.org/2000/svg">
<g clip-path="url(#clip0_1457_176)">
<path d="M11.875 0.937501C11.7921 0.937501 11.7126 0.970425 11.654 1.02903C11.5954 1.08763 11.5625 1.16712 11.5625 1.25C11.5625 1.33288 11.5954 1.41237 11.654 1.47097C11.7126 1.52958 11.7921 1.5625 11.875 1.5625H12.3706L11.6537 2.27875C11.6099 2.32246 11.5801 2.37819 11.568 2.43888C11.5559 2.49957 11.5621 2.56249 11.5858 2.61967C11.6095 2.67684 11.6496 2.72568 11.7011 2.76001C11.7526 2.79434 11.8131 2.81261 11.875 2.8125H13.125C13.2079 2.8125 13.2874 2.77958 13.346 2.72097C13.4046 2.66237 13.4375 2.58288 13.4375 2.5C13.4375 2.41712 13.4046 2.33763 13.346 2.27903C13.2874 2.22042 13.2079 2.1875 13.125 2.1875H12.6294L13.3463 1.47125C13.3901 1.42754 13.4199 1.37181 13.432 1.31112C13.4441 1.25043 13.4379 1.18751 13.4142 1.13034C13.3905 1.07317 13.3504 1.02432 13.2989 0.989988C13.2474 0.955658 13.1869 0.93739 13.125 0.937501H11.875ZM14.375 2.8125C14.2921 2.8125 14.2126 2.84542 14.154 2.90403C14.0954 2.96263 14.0625 3.04212 14.0625 3.125C14.0625 3.20788 14.0954 3.28737 14.154 3.34597C14.2126 3.40458 14.2921 3.4375 14.375 3.4375H14.8706L14.1537 4.15375C14.1099 4.19746 14.0801 4.25319 14.068 4.31388C14.0559 4.37457 14.0621 4.43749 14.0858 4.49467C14.1095 4.55184 14.1496 4.60068 14.2011 4.63501C14.2526 4.66934 14.3131 4.68761 14.375 4.6875H15.625C15.7079 4.6875 15.7874 4.65458 15.846 4.59597C15.9046 4.53737 15.9375 4.45788 15.9375 4.375C15.9375 4.29212 15.9046 4.21263 15.846 4.15403C15.7874 4.09542 15.7079 4.0625 15.625 4.0625H15.1294L15.8463 3.34625C15.8901 3.30254 15.9199 3.24681 15.932 3.18612C15.9441 3.12543 15.9379 3.06251 15.9142 3.00534C15.8905 2.94816 15.8504 2.89932 15.7989 2.86499C15.7474 2.83066 15.6869 2.81239 15.625 2.8125H14.375ZM9.6825 3.4375C9.18522 3.4375 8.70831 3.63504 8.35667 3.98668C8.00504 4.33831 7.8075 4.81522 7.8075 5.3125C7.8075 5.80978 8.00504 6.2867 8.35667 6.63833C8.70831 6.98996 9.18522 7.1875 9.6825 7.1875C10.1798 7.1875 10.6567 6.98996 11.0083 6.63833C11.36 6.2867 11.5575 5.80978 11.5575 5.3125C11.5575 4.81522 11.36 4.33831 11.0083 3.98668C10.6567 3.63504 10.1798 3.4375 9.6825 3.4375ZM12.5 5.3125C12.4171 5.3125 12.3376 5.34542 12.279 5.40403C12.2204 5.46263 12.1875 5.54212 12.1875 5.625C12.1875 5.70788 12.2204 5.78737 12.279 5.84597C12.3376 5.90458 12.4171 5.9375 12.5 5.9375H12.9956L12.2787 6.65375C12.2349 6.69746 12.2051 6.75319 12.193 6.81388C12.1809 6.87457 12.1871 6.93749 12.2108 6.99467C12.2345 7.05184 12.2746 7.10068 12.3261 7.13501C12.3776 7.16934 12.4381 7.18761 12.5 7.1875H13.75C13.8329 7.1875 13.9124 7.15458 13.971 7.09597C14.0296 7.03737 14.0625 6.95788 14.0625 6.875C14.0625 6.79212 14.0296 6.71263 13.971 6.65403C13.9124 6.59542 13.8329 6.5625 13.75 6.5625H13.2544L13.9713 5.84625C14.0151 5.80254 14.0449 5.74681 14.057 5.68612C14.0691 5.62543 14.0629 5.56251 14.0392 5.50534C14.0155 5.44817 13.9754 5.39932 13.9239 5.36499C13.8724 5.33066 13.8119 5.31239 13.75 5.3125H12.5ZM6.5625 5.925C6.19535 5.89256 5.82678 5.96904 5.50286 6.1449C5.17894 6.32076 4.91403 6.58818 4.74125 6.91375L2.4075 11.3075C2.17436 11.7466 2.12517 12.2603 2.27074 12.7357C2.41631 13.2111 2.74472 13.6092 3.18375 13.8425C3.39937 13.9575 3.6275 14.0125 3.8575 14.0381C3.91125 14.0506 3.96688 14.0569 4.02375 14.0587C4.03625 14.0587 4.04875 14.0625 4.06125 14.0625H7.1875V18.125C7.1875 18.3736 7.28627 18.6121 7.46209 18.7879C7.6379 18.9637 7.87636 19.0625 8.125 19.0625C8.37364 19.0625 8.6121 18.9637 8.78791 18.7879C8.96373 18.6121 9.0625 18.3736 9.0625 18.125V13.125C9.0625 12.8764 8.96373 12.6379 8.78791 12.4621C8.6121 12.2863 8.37364 12.1875 8.125 12.1875H6.185L7.85625 9.04188L9.34062 9.62313C9.44957 9.66572 9.56552 9.68756 9.6825 9.6875H11.865C12.1136 9.6875 12.3521 9.58873 12.5279 9.41291C12.7037 9.2371 12.8025 8.99864 12.8025 8.75C12.8025 8.50136 12.7037 8.2629 12.5279 8.08709C12.3521 7.91127 12.1136 7.8125 11.865 7.8125H9.85937L8.14687 7.14125C8.02606 6.80867 7.81276 6.51751 7.53208 6.30204C7.2514 6.08658 6.91501 5.95577 6.5625 5.925ZM0.93875 9.0575C0.77299 9.0575 0.614018 9.12335 0.496808 9.24056C0.379598 9.35777 0.31375 9.51674 0.31375 9.6825L0.3125 15.3125C0.3126 15.4352 0.348804 15.5551 0.416599 15.6574C0.484394 15.7596 0.580782 15.8397 0.69375 15.8875L0.694375 15.8888C0.769375 15.92 0.850625 15.9375 0.9375 15.9375H2.8125V17.6163L1.675 18.4987C1.64069 18.5232 1.61168 18.5543 1.58972 18.5903C1.56775 18.6262 1.55327 18.6662 1.54716 18.7079C1.54105 18.7496 1.54343 18.7921 1.55416 18.8328C1.56489 18.8736 1.58374 18.9117 1.60958 18.945C1.63543 18.9782 1.66773 19.0059 1.70456 19.0264C1.74138 19.0469 1.78196 19.0597 1.82385 19.064C1.86575 19.0684 1.9081 19.0643 1.94836 19.0519C1.98862 19.0395 2.02596 19.0191 2.05812 18.9919L2.8125 18.4063V18.7444C2.8125 18.8273 2.84542 18.9067 2.90403 18.9653C2.96263 19.024 3.04212 19.0569 3.125 19.0569C3.20788 19.0569 3.28737 19.024 3.34597 18.9653C3.40458 18.9067 3.4375 18.8273 3.4375 18.7444V18.4194L4.175 18.9912C4.2405 19.0415 4.32315 19.0639 4.40504 19.0536C4.48693 19.0433 4.56147 19.0011 4.6125 18.9363C4.66331 18.8709 4.68611 18.7881 4.67592 18.7059C4.66573 18.6238 4.62336 18.5491 4.55813 18.4981L3.4375 17.6294V15.9375H5.30375C5.46951 15.9375 5.62848 15.8717 5.74569 15.7544C5.8629 15.6372 5.92875 15.4783 5.92875 15.3125C5.92875 15.1467 5.8629 14.9878 5.74569 14.8706C5.62848 14.7533 5.46951 14.6875 5.30375 14.6875H1.5625L1.56375 9.6825C1.56375 9.51674 1.4979 9.35777 1.38069 9.24056C1.26348 9.12335 1.10451 9.0575 0.93875 9.0575ZM8.4375 10.3125C8.27174 10.3125 8.11277 10.3783 7.99556 10.4956C7.87835 10.6128 7.8125 10.7717 7.8125 10.9375C7.8125 11.1033 7.87835 11.2622 7.99556 11.3794C8.11277 11.4967 8.27174 11.5625 8.4375 11.5625H9.6875V18.4375C9.6875 18.6033 9.75335 18.7622 9.87056 18.8794C9.98777 18.9967 10.1467 19.0625 10.3125 19.0625C10.4783 19.0625 10.6372 18.9967 10.7544 18.8794C10.8717 18.7622 10.9375 18.6033 10.9375 18.4375V11.5625H16.5625V18.4375C16.5625 18.6033 16.6283 18.7622 16.7456 18.8794C16.8628 18.9967 17.0217 19.0625 17.1875 19.0625C17.3533 19.0625 17.5122 18.9967 17.6294 18.8794C17.7467 18.7622 17.8125 18.6033 17.8125 18.4375V11.5625H19.0625C19.2283 11.5625 19.3872 11.4967 19.5044 11.3794C19.6217 11.2622 19.6875 11.1033 19.6875 10.9375C19.6875 10.7717 19.6217 10.6128 19.5044 10.4956C19.3872 10.3783 19.2283 10.3125 19.0625 10.3125H8.4375Z" fill="white"/>
</g>
<defs>
<clipPath id="clip0_1457_176">
<rect width="20" height="20" fill="white"/>
</clipPath>
</defs>
</svg>
