<svg width="60" height="60" viewBox="0 0 60 60" fill="none" xmlns="http://www.w3.org/2000/svg">
<circle cx="30" cy="30" r="27.5" fill="#1B1A20" stroke="#F8F5FF" stroke-width="5"/>
<path d="M21 42C20.175 42 19.4685 41.7312 18.8805 41.1936C18.2925 40.656 17.999 40.0105 18 39.2571V26.9143C18 26.48 18.1065 26.0686 18.3195 25.68C18.5325 25.2914 18.826 24.9714 19.2 24.72L28.2 18.5486C28.475 18.3657 28.7625 18.2286 29.0625 18.1371C29.3625 18.0457 29.675 18 30 18C30.325 18 30.6375 18.0457 30.9375 18.1371C31.2375 18.2286 31.525 18.3657 31.8 18.5486L40.8 24.72C41.175 24.9714 41.469 25.2914 41.682 25.68C41.895 26.0686 42.001 26.48 42 26.9143V39.2571C42 40.0114 41.706 40.6574 41.118 41.195C40.53 41.7326 39.824 42.0009 39 42H33V32.4H27V42H21Z" fill="#F8F5FF"/>
</svg>
