<svg width="26" height="26" viewBox="0 0 26 26" fill="none" xmlns="http://www.w3.org/2000/svg">
<path d="M11.2729 0.0322084C5.05672 0.0322084 0 5.08893 0 11.3052C0 17.5214 5.05672 22.5781 11.2729 22.5781C13.1732 22.5781 15.0413 22.1272 16.6195 21.2576C16.746 21.4097 16.8861 21.5498 17.0382 21.6763L20.2591 24.8971C20.5565 25.2317 20.9192 25.5021 21.3248 25.6915C21.7305 25.8809 22.1706 25.9854 22.6181 25.9986C23.0656 26.0118 23.5111 25.9333 23.9272 25.7681C24.3433 25.6029 24.7212 25.3543 25.0378 25.0378C25.3543 24.7212 25.6029 24.3433 25.7681 23.9272C25.9333 23.5111 26.0118 23.0656 25.9986 22.6181C25.9854 22.1706 25.8809 21.7305 25.6915 21.3248C25.5021 20.9192 25.2317 20.5565 24.8971 20.2591L21.6763 17.0382C21.5194 16.8813 21.3467 16.741 21.1609 16.6195C22.0306 15.0413 22.5781 13.2054 22.5781 11.2729C22.5781 5.05672 17.5214 0 11.3052 0L11.2729 0.0322084ZM11.2729 3.25305C15.7499 3.25305 19.325 6.82818 19.325 11.3052C19.325 13.4309 18.552 15.3956 17.1993 16.845C17.1671 16.8772 17.1349 16.9094 17.1027 16.9416C16.9505 17.068 16.8104 17.2082 16.684 17.3603C15.2668 18.6487 13.3343 19.3895 11.2407 19.3895C6.76377 19.3895 3.18863 15.8143 3.18863 11.3374C3.18863 6.86039 6.76377 3.28526 11.2407 3.28526L11.2729 3.25305Z" fill="#F8F8F8"/>
</svg>
