<svg width="26" height="26" viewBox="0 0 26 26" fill="none" xmlns="http://www.w3.org/2000/svg">
<path d="M11.3791 0L9.7581 3.85786C9.43391 3.95511 9.14214 4.11721 8.85037 4.2793L4.99252 2.65835L2.65835 4.99252L4.2793 8.85037C4.11721 9.17456 3.98753 9.43391 3.85785 9.7581L0 11.3791V14.6209L3.85785 16.2419C3.98753 16.5661 4.11721 16.8254 4.2793 17.1496L2.65835 21.0075L4.99252 23.3416L8.85037 21.7207C9.14214 21.8504 9.43391 22.0125 9.7581 22.1421L11.3791 26H14.6209L16.2419 22.1421C16.5337 22.0125 16.8579 21.8828 17.1496 21.7207L21.0075 23.3416L23.3416 21.0075L21.7207 17.1496C21.8504 16.8579 22.0125 16.5337 22.1421 16.2419L26 14.6209V11.3791L22.1421 9.7581C22.0449 9.46633 21.8828 9.14214 21.7207 8.85037L23.3416 4.99252L21.0075 2.65835L17.1496 4.2793C16.8579 4.14963 16.5337 3.98753 16.2419 3.85786L14.6209 0L11.3791 0ZM13 8.10474C15.6908 8.10474 17.8628 10.2768 17.8628 12.9676C17.8628 15.6584 15.6908 17.8304 13 17.8304C10.3092 17.8304 8.13716 15.6584 8.13716 12.9676C8.13716 10.2768 10.3092 8.10474 13 8.10474Z" fill="#F8F8F8"/>
</svg>
