<svg width="29" height="29" viewBox="0 0 29 29" fill="none" xmlns="http://www.w3.org/2000/svg">
<path d="M8.45833 8.45832C5.79323 8.45832 3.625 10.6266 3.625 13.2917V20.5417C3.625 23.2068 5.79323 25.375 8.45833 25.375H20.5417C23.2068 25.375 25.375 23.2068 25.375 20.5417V13.2917C25.375 10.6266 23.2068 8.45832 20.5417 8.45832H15.7083V6.91395C16.4272 6.49478 16.9167 5.72399 16.9167 4.83332C16.9167 3.50053 15.8328 2.41666 14.5 2.41666C13.1672 2.41666 12.0833 3.50053 12.0833 4.83332C12.0833 5.72399 12.5728 6.49478 13.2917 6.91395V8.45832H8.45833ZM20.5417 10.875C21.8745 10.875 22.9583 11.9589 22.9583 13.2917V20.5417C22.9583 21.8744 21.8745 22.9583 20.5417 22.9583H8.45833C7.12554 22.9583 6.04167 21.8744 6.04167 20.5417V13.2917C6.04167 11.9589 7.12554 10.875 8.45833 10.875H20.5417Z" fill="white"/>
<path d="M10.875 16.9167C12.2097 16.9167 13.2917 15.8347 13.2917 14.5C13.2917 13.1653 12.2097 12.0833 10.875 12.0833C9.54032 12.0833 8.45834 13.1653 8.45834 14.5C8.45834 15.8347 9.54032 16.9167 10.875 16.9167Z" fill="white"/>
<path d="M18.125 16.9167C19.4597 16.9167 20.5417 15.8347 20.5417 14.5C20.5417 13.1653 19.4597 12.0833 18.125 12.0833C16.7903 12.0833 15.7083 13.1653 15.7083 14.5C15.7083 15.8347 16.7903 16.9167 18.125 16.9167Z" fill="white"/>
<path d="M16.9167 19.3333H12.0833C11.4161 19.3333 10.875 19.8744 10.875 20.5417C10.875 21.2089 11.4161 21.75 12.0833 21.75H16.9167C17.5839 21.75 18.125 21.2089 18.125 20.5417C18.125 19.8744 17.5839 19.3333 16.9167 19.3333Z" fill="white"/>
</svg>
