<svg width="60" height="60" viewBox="0 0 60 60" fill="none" xmlns="http://www.w3.org/2000/svg">
<circle cx="30" cy="30" r="27.5" fill="#1B1A20" stroke="#F8F5FF" stroke-width="5"/>
<path d="M30 18C31.5913 18 33.1174 18.6321 34.2426 19.7574C35.3679 20.8826 36 22.4087 36 24C36 25.5913 35.3679 27.1174 34.2426 28.2426C33.1174 29.3679 31.5913 30 30 30C28.4087 30 26.8826 29.3679 25.7574 28.2426C24.6321 27.1174 24 25.5913 24 24C24 22.4087 24.6321 20.8826 25.7574 19.7574C26.8826 18.6321 28.4087 18 30 18ZM30 33C36.63 33 42 35.685 42 39V42H18V39C18 35.685 23.37 33 30 33Z" fill="#F8F5FF"/>
</svg>
