<svg width="128" height="128" viewBox="0 0 128 128" fill="none" xmlns="http://www.w3.org/2000/svg">
<g clip-path="url(#clip0_856_706)">
<path d="M44.9522 100.352L25.856 110.768C24.7354 111.379 23.7283 112.13 22.7913 112.949C33.9248 122.337 48.2971 128 64 128C79.587 128 93.8675 122.421 104.97 113.162C103.946 112.297 102.835 111.519 101.603 110.906L81.1544 100.683C78.5123 99.3619 76.8435 96.6618 76.8435 93.7081V85.6852C77.4183 85.0307 78.0752 84.1903 78.778 83.1977C81.565 79.2611 83.6734 74.9308 85.1345 70.388C87.7573 69.5789 89.6894 67.1566 89.6894 64.2778V55.7139C89.6894 53.8301 88.8513 52.1468 87.5496 50.9682V38.5884C87.5496 38.5884 90.0927 19.3232 64.0024 19.3232C37.9122 19.3232 40.4553 38.5884 40.4553 38.5884V50.9682C39.1511 52.1468 38.3155 53.8301 38.3155 55.7139V64.2778C38.3155 66.5335 39.5013 68.5187 41.2764 69.6659C43.4162 78.9809 49.0192 85.6852 49.0192 85.6852V93.5101C49.0168 96.3599 47.4566 98.9851 44.9522 100.352Z" fill="#E7ECED"/>
<path d="M65.0939 0.00953035C29.7538 -0.594243 0.61331 27.5658 0.00953666 62.9058C-0.333407 82.9439 8.59761 100.953 22.8177 112.93C23.7475 112.118 24.7449 111.374 25.8535 110.771L44.9496 100.354C47.4541 98.9873 49.0142 96.3621 49.0142 93.5075V85.6826C49.0142 85.6826 43.4088 78.9783 41.2714 69.6633C39.4987 68.5161 38.3105 66.5333 38.3105 64.2752V55.7113C38.3105 53.8275 39.1486 52.1442 40.4503 50.9656V38.5858C40.4503 38.5858 37.9072 19.3206 63.9975 19.3206C90.0877 19.3206 87.5446 38.5858 87.5446 38.5858V50.9656C88.8488 52.1442 89.6844 53.8275 89.6844 55.7113V64.2752C89.6844 67.154 87.7523 69.5763 85.1295 70.3854C83.6684 74.9282 81.56 79.2584 78.773 83.195C78.0702 84.1877 77.4133 85.0281 76.8385 85.6826V93.7055C76.8385 96.6592 78.5074 99.3617 81.1495 100.68L101.598 110.903C102.825 111.517 103.933 112.292 104.955 113.154C118.745 101.654 127.655 84.4581 127.985 65.0939C128.594 29.7538 100.436 0.613304 65.0939 0.00953035Z" fill="#1B1A20"/>
</g>
<defs>
<clipPath id="clip0_856_706">
<rect width="128" height="128" fill="white"/>
</clipPath>
</defs>
</svg>
